<mxfile host="app.diagrams.net" modified="2024-05-30T15:56:52.890Z" agent="Mozilla/5.0 (Windows NT 10.0; Win64; x64) AppleWebKit/537.36 (KHTML, like Gecko) Chrome/125.0.0.0 Safari/537.36" etag="Mz7EWhhSwA6soqgVpUyQ" version="24.4.9" type="device">
  <diagram name="Page-1" id="h0kYZlrYVy9sUb89Be3J">
    <mxGraphModel dx="1015" dy="813" grid="0" gridSize="10" guides="1" tooltips="1" connect="1" arrows="1" fold="1" page="0" pageScale="1" pageWidth="1100" pageHeight="1700" math="0" shadow="0">
      <root>
        <mxCell id="0" />
        <mxCell id="1" parent="0" />
        <mxCell id="aarwhKfDUta44lL6oCuK-1" value="Coordinator" style="rounded=1;whiteSpace=wrap;html=1;" vertex="1" parent="1">
          <mxGeometry x="380" y="330" width="120" height="60" as="geometry" />
        </mxCell>
        <mxCell id="aarwhKfDUta44lL6oCuK-2" value="Participant" style="rounded=1;whiteSpace=wrap;html=1;" vertex="1" parent="1">
          <mxGeometry x="200" y="220" width="120" height="60" as="geometry" />
        </mxCell>
        <mxCell id="aarwhKfDUta44lL6oCuK-3" value="Erroneous Participant" style="rounded=1;whiteSpace=wrap;html=1;" vertex="1" parent="1">
          <mxGeometry x="380" y="160" width="120" height="60" as="geometry" />
        </mxCell>
        <mxCell id="aarwhKfDUta44lL6oCuK-4" value="Participant" style="rounded=1;whiteSpace=wrap;html=1;" vertex="1" parent="1">
          <mxGeometry x="560" y="220" width="120" height="60" as="geometry" />
        </mxCell>
        <mxCell id="aarwhKfDUta44lL6oCuK-5" value="" style="endArrow=classic;html=1;rounded=0;exitX=0.003;exitY=0.4;exitDx=0;exitDy=0;entryX=0.75;entryY=1;entryDx=0;entryDy=0;exitPerimeter=0;" edge="1" parent="1" source="aarwhKfDUta44lL6oCuK-1" target="aarwhKfDUta44lL6oCuK-2">
          <mxGeometry width="50" height="50" relative="1" as="geometry">
            <mxPoint x="400" y="380" as="sourcePoint" />
            <mxPoint x="450" y="330" as="targetPoint" />
          </mxGeometry>
        </mxCell>
        <mxCell id="aarwhKfDUta44lL6oCuK-6" value="" style="endArrow=classic;html=1;rounded=0;exitX=1;exitY=1;exitDx=0;exitDy=0;entryX=0;entryY=0;entryDx=0;entryDy=0;" edge="1" parent="1" source="aarwhKfDUta44lL6oCuK-2" target="aarwhKfDUta44lL6oCuK-1">
          <mxGeometry width="50" height="50" relative="1" as="geometry">
            <mxPoint x="390" y="370" as="sourcePoint" />
            <mxPoint x="300" y="290" as="targetPoint" />
          </mxGeometry>
        </mxCell>
        <mxCell id="aarwhKfDUta44lL6oCuK-7" value=":prepare" style="text;html=1;align=center;verticalAlign=middle;whiteSpace=wrap;rounded=0;" vertex="1" parent="1">
          <mxGeometry x="280" y="310" width="60" height="30" as="geometry" />
        </mxCell>
        <mxCell id="aarwhKfDUta44lL6oCuK-8" value=":prepared" style="text;html=1;align=center;verticalAlign=middle;whiteSpace=wrap;rounded=0;" vertex="1" parent="1">
          <mxGeometry x="330" y="270" width="60" height="30" as="geometry" />
        </mxCell>
        <mxCell id="aarwhKfDUta44lL6oCuK-11" value="" style="endArrow=classic;dashed=1;html=1;rounded=0;exitX=0.25;exitY=0;exitDx=0;exitDy=0;endFill=1;" edge="1" parent="1" source="aarwhKfDUta44lL6oCuK-2">
          <mxGeometry width="50" height="50" relative="1" as="geometry">
            <mxPoint x="400" y="280" as="sourcePoint" />
            <mxPoint x="230" y="160" as="targetPoint" />
          </mxGeometry>
        </mxCell>
        <mxCell id="aarwhKfDUta44lL6oCuK-12" value="" style="endArrow=classic;dashed=1;html=1;rounded=0;endFill=1;entryX=0.75;entryY=0;entryDx=0;entryDy=0;" edge="1" parent="1" target="aarwhKfDUta44lL6oCuK-2">
          <mxGeometry width="50" height="50" relative="1" as="geometry">
            <mxPoint x="290" y="160" as="sourcePoint" />
            <mxPoint x="240" y="180" as="targetPoint" />
          </mxGeometry>
        </mxCell>
        <mxCell id="aarwhKfDUta44lL6oCuK-13" value="acquire&lt;div&gt;locks&lt;/div&gt;" style="text;html=1;align=center;verticalAlign=middle;whiteSpace=wrap;rounded=0;" vertex="1" parent="1">
          <mxGeometry x="230" y="170" width="60" height="30" as="geometry" />
        </mxCell>
        <mxCell id="aarwhKfDUta44lL6oCuK-14" value="" style="endArrow=classic;html=1;rounded=0;exitX=0.25;exitY=0;exitDx=0;exitDy=0;entryX=0.25;entryY=1;entryDx=0;entryDy=0;" edge="1" parent="1" source="aarwhKfDUta44lL6oCuK-1" target="aarwhKfDUta44lL6oCuK-3">
          <mxGeometry width="50" height="50" relative="1" as="geometry">
            <mxPoint x="400" y="280" as="sourcePoint" />
            <mxPoint x="450" y="230" as="targetPoint" />
          </mxGeometry>
        </mxCell>
        <mxCell id="aarwhKfDUta44lL6oCuK-15" value="" style="endArrow=classic;html=1;rounded=0;exitX=0.75;exitY=1;exitDx=0;exitDy=0;entryX=0.75;entryY=0;entryDx=0;entryDy=0;" edge="1" parent="1" source="aarwhKfDUta44lL6oCuK-3" target="aarwhKfDUta44lL6oCuK-1">
          <mxGeometry width="50" height="50" relative="1" as="geometry">
            <mxPoint x="420" y="340" as="sourcePoint" />
            <mxPoint x="420" y="230" as="targetPoint" />
          </mxGeometry>
        </mxCell>
        <mxCell id="aarwhKfDUta44lL6oCuK-16" value=":prepare" style="text;html=1;align=center;verticalAlign=middle;whiteSpace=wrap;rounded=0;fillColor=default;" vertex="1" parent="1">
          <mxGeometry x="380" y="240" width="60" height="30" as="geometry" />
        </mxCell>
        <mxCell id="aarwhKfDUta44lL6oCuK-18" value=":prepared" style="text;html=1;align=center;verticalAlign=middle;whiteSpace=wrap;rounded=0;fillColor=default;" vertex="1" parent="1">
          <mxGeometry x="440" y="280" width="60" height="30" as="geometry" />
        </mxCell>
        <mxCell id="aarwhKfDUta44lL6oCuK-19" value="" style="endArrow=classic;html=1;rounded=0;exitX=1;exitY=0;exitDx=0;exitDy=0;entryX=0;entryY=1;entryDx=0;entryDy=0;" edge="1" parent="1" source="aarwhKfDUta44lL6oCuK-1" target="aarwhKfDUta44lL6oCuK-4">
          <mxGeometry width="50" height="50" relative="1" as="geometry">
            <mxPoint x="390" y="364" as="sourcePoint" />
            <mxPoint x="300" y="290" as="targetPoint" />
          </mxGeometry>
        </mxCell>
        <mxCell id="aarwhKfDUta44lL6oCuK-21" value=":prepare" style="text;html=1;align=center;verticalAlign=middle;whiteSpace=wrap;rounded=0;fillColor=none;" vertex="1" parent="1">
          <mxGeometry x="490" y="270" width="60" height="30" as="geometry" />
        </mxCell>
        <mxCell id="aarwhKfDUta44lL6oCuK-22" value="" style="endArrow=classic;html=1;rounded=0;entryX=1;entryY=0.25;entryDx=0;entryDy=0;exitX=0.167;exitY=1;exitDx=0;exitDy=0;exitPerimeter=0;" edge="1" parent="1" source="aarwhKfDUta44lL6oCuK-4" target="aarwhKfDUta44lL6oCuK-1">
          <mxGeometry width="50" height="50" relative="1" as="geometry">
            <mxPoint x="574" y="284" as="sourcePoint" />
            <mxPoint x="630" y="320" as="targetPoint" />
          </mxGeometry>
        </mxCell>
        <mxCell id="aarwhKfDUta44lL6oCuK-23" value=":prepared" style="text;html=1;align=center;verticalAlign=middle;whiteSpace=wrap;rounded=0;" vertex="1" parent="1">
          <mxGeometry x="530" y="310" width="60" height="30" as="geometry" />
        </mxCell>
        <mxCell id="aarwhKfDUta44lL6oCuK-24" value="" style="endArrow=classic;dashed=1;html=1;rounded=0;exitX=0.25;exitY=0;exitDx=0;exitDy=0;endFill=1;" edge="1" parent="1">
          <mxGeometry width="50" height="50" relative="1" as="geometry">
            <mxPoint x="590" y="220" as="sourcePoint" />
            <mxPoint x="590" y="160" as="targetPoint" />
          </mxGeometry>
        </mxCell>
        <mxCell id="aarwhKfDUta44lL6oCuK-25" value="" style="endArrow=classic;dashed=1;html=1;rounded=0;endFill=1;entryX=0.75;entryY=0;entryDx=0;entryDy=0;" edge="1" parent="1">
          <mxGeometry width="50" height="50" relative="1" as="geometry">
            <mxPoint x="650" y="160" as="sourcePoint" />
            <mxPoint x="650" y="220" as="targetPoint" />
          </mxGeometry>
        </mxCell>
        <mxCell id="aarwhKfDUta44lL6oCuK-26" value="acquire&lt;div&gt;locks&lt;/div&gt;" style="text;html=1;align=center;verticalAlign=middle;whiteSpace=wrap;rounded=0;" vertex="1" parent="1">
          <mxGeometry x="590" y="170" width="60" height="30" as="geometry" />
        </mxCell>
        <mxCell id="aarwhKfDUta44lL6oCuK-27" value="Coordinator" style="rounded=1;whiteSpace=wrap;html=1;" vertex="1" parent="1">
          <mxGeometry x="880" y="330" width="120" height="60" as="geometry" />
        </mxCell>
        <mxCell id="aarwhKfDUta44lL6oCuK-28" value="Participant" style="rounded=1;whiteSpace=wrap;html=1;" vertex="1" parent="1">
          <mxGeometry x="700" y="220" width="120" height="60" as="geometry" />
        </mxCell>
        <mxCell id="aarwhKfDUta44lL6oCuK-29" value="Erroneous Participant" style="rounded=1;whiteSpace=wrap;html=1;" vertex="1" parent="1">
          <mxGeometry x="880" y="160" width="120" height="60" as="geometry" />
        </mxCell>
        <mxCell id="aarwhKfDUta44lL6oCuK-30" value="Participant" style="rounded=1;whiteSpace=wrap;html=1;" vertex="1" parent="1">
          <mxGeometry x="1060" y="220" width="120" height="60" as="geometry" />
        </mxCell>
        <mxCell id="aarwhKfDUta44lL6oCuK-31" value="" style="endArrow=classic;html=1;rounded=0;exitX=0.003;exitY=0.4;exitDx=0;exitDy=0;entryX=0.75;entryY=1;entryDx=0;entryDy=0;exitPerimeter=0;" edge="1" parent="1" source="aarwhKfDUta44lL6oCuK-27" target="aarwhKfDUta44lL6oCuK-28">
          <mxGeometry width="50" height="50" relative="1" as="geometry">
            <mxPoint x="900" y="380" as="sourcePoint" />
            <mxPoint x="950" y="330" as="targetPoint" />
          </mxGeometry>
        </mxCell>
        <mxCell id="aarwhKfDUta44lL6oCuK-32" value="" style="endArrow=classic;html=1;rounded=0;exitX=1;exitY=1;exitDx=0;exitDy=0;entryX=0;entryY=0;entryDx=0;entryDy=0;" edge="1" parent="1" source="aarwhKfDUta44lL6oCuK-28" target="aarwhKfDUta44lL6oCuK-27">
          <mxGeometry width="50" height="50" relative="1" as="geometry">
            <mxPoint x="890" y="370" as="sourcePoint" />
            <mxPoint x="800" y="290" as="targetPoint" />
          </mxGeometry>
        </mxCell>
        <mxCell id="aarwhKfDUta44lL6oCuK-33" value=":commit" style="text;html=1;align=center;verticalAlign=middle;whiteSpace=wrap;rounded=0;" vertex="1" parent="1">
          <mxGeometry x="780" y="310" width="60" height="30" as="geometry" />
        </mxCell>
        <mxCell id="aarwhKfDUta44lL6oCuK-34" value=":ack" style="text;html=1;align=center;verticalAlign=middle;whiteSpace=wrap;rounded=0;" vertex="1" parent="1">
          <mxGeometry x="830" y="270" width="60" height="30" as="geometry" />
        </mxCell>
        <mxCell id="aarwhKfDUta44lL6oCuK-35" value="" style="endArrow=classic;dashed=1;html=1;rounded=0;endFill=1;" edge="1" parent="1">
          <mxGeometry width="50" height="50" relative="1" as="geometry">
            <mxPoint x="730" y="220" as="sourcePoint" />
            <mxPoint x="730" y="160" as="targetPoint" />
          </mxGeometry>
        </mxCell>
        <mxCell id="aarwhKfDUta44lL6oCuK-36" value="" style="endArrow=classic;dashed=1;html=1;rounded=0;endFill=1;entryX=0.75;entryY=0;entryDx=0;entryDy=0;" edge="1" parent="1" target="aarwhKfDUta44lL6oCuK-28">
          <mxGeometry width="50" height="50" relative="1" as="geometry">
            <mxPoint x="790" y="160" as="sourcePoint" />
            <mxPoint x="740" y="180" as="targetPoint" />
          </mxGeometry>
        </mxCell>
        <mxCell id="aarwhKfDUta44lL6oCuK-37" value="transact" style="text;html=1;align=center;verticalAlign=middle;whiteSpace=wrap;rounded=0;" vertex="1" parent="1">
          <mxGeometry x="730" y="170" width="60" height="30" as="geometry" />
        </mxCell>
        <mxCell id="aarwhKfDUta44lL6oCuK-38" value="" style="endArrow=classic;html=1;rounded=0;exitX=0.25;exitY=0;exitDx=0;exitDy=0;entryX=0.25;entryY=1;entryDx=0;entryDy=0;" edge="1" parent="1" source="aarwhKfDUta44lL6oCuK-27" target="aarwhKfDUta44lL6oCuK-29">
          <mxGeometry width="50" height="50" relative="1" as="geometry">
            <mxPoint x="900" y="280" as="sourcePoint" />
            <mxPoint x="950" y="230" as="targetPoint" />
          </mxGeometry>
        </mxCell>
        <mxCell id="aarwhKfDUta44lL6oCuK-39" value="" style="endArrow=classic;html=1;rounded=0;exitX=0.75;exitY=1;exitDx=0;exitDy=0;entryX=0.75;entryY=0;entryDx=0;entryDy=0;" edge="1" parent="1" source="aarwhKfDUta44lL6oCuK-29" target="aarwhKfDUta44lL6oCuK-27">
          <mxGeometry width="50" height="50" relative="1" as="geometry">
            <mxPoint x="920" y="340" as="sourcePoint" />
            <mxPoint x="920" y="230" as="targetPoint" />
          </mxGeometry>
        </mxCell>
        <mxCell id="aarwhKfDUta44lL6oCuK-40" value=":commit" style="text;html=1;align=center;verticalAlign=middle;whiteSpace=wrap;rounded=0;fillColor=default;" vertex="1" parent="1">
          <mxGeometry x="880" y="240" width="60" height="30" as="geometry" />
        </mxCell>
        <mxCell id="aarwhKfDUta44lL6oCuK-41" value=":abort" style="text;html=1;align=center;verticalAlign=middle;whiteSpace=wrap;rounded=0;fillColor=default;" vertex="1" parent="1">
          <mxGeometry x="944" y="280" width="50" height="30" as="geometry" />
        </mxCell>
        <mxCell id="aarwhKfDUta44lL6oCuK-42" value="" style="endArrow=classic;html=1;rounded=0;exitX=1;exitY=0;exitDx=0;exitDy=0;entryX=0;entryY=1;entryDx=0;entryDy=0;" edge="1" parent="1" source="aarwhKfDUta44lL6oCuK-27" target="aarwhKfDUta44lL6oCuK-30">
          <mxGeometry width="50" height="50" relative="1" as="geometry">
            <mxPoint x="890" y="364" as="sourcePoint" />
            <mxPoint x="800" y="290" as="targetPoint" />
          </mxGeometry>
        </mxCell>
        <mxCell id="aarwhKfDUta44lL6oCuK-43" value=":commit" style="text;html=1;align=center;verticalAlign=middle;whiteSpace=wrap;rounded=0;fillColor=none;" vertex="1" parent="1">
          <mxGeometry x="990" y="270" width="60" height="30" as="geometry" />
        </mxCell>
        <mxCell id="aarwhKfDUta44lL6oCuK-44" value="" style="endArrow=classic;html=1;rounded=0;entryX=1;entryY=0.25;entryDx=0;entryDy=0;exitX=0.167;exitY=1;exitDx=0;exitDy=0;exitPerimeter=0;" edge="1" parent="1" source="aarwhKfDUta44lL6oCuK-30" target="aarwhKfDUta44lL6oCuK-27">
          <mxGeometry width="50" height="50" relative="1" as="geometry">
            <mxPoint x="1074" y="284" as="sourcePoint" />
            <mxPoint x="1130" y="320" as="targetPoint" />
          </mxGeometry>
        </mxCell>
        <mxCell id="aarwhKfDUta44lL6oCuK-45" value=":ack" style="text;html=1;align=center;verticalAlign=middle;whiteSpace=wrap;rounded=0;" vertex="1" parent="1">
          <mxGeometry x="1030" y="310" width="60" height="30" as="geometry" />
        </mxCell>
        <mxCell id="aarwhKfDUta44lL6oCuK-46" value="" style="endArrow=classic;dashed=1;html=1;rounded=0;exitX=0.25;exitY=0;exitDx=0;exitDy=0;endFill=1;" edge="1" parent="1">
          <mxGeometry width="50" height="50" relative="1" as="geometry">
            <mxPoint x="1090" y="220" as="sourcePoint" />
            <mxPoint x="1090" y="160" as="targetPoint" />
          </mxGeometry>
        </mxCell>
        <mxCell id="aarwhKfDUta44lL6oCuK-47" value="" style="endArrow=classic;dashed=1;html=1;rounded=0;endFill=1;entryX=0.75;entryY=0;entryDx=0;entryDy=0;" edge="1" parent="1">
          <mxGeometry width="50" height="50" relative="1" as="geometry">
            <mxPoint x="1150" y="160" as="sourcePoint" />
            <mxPoint x="1150" y="220" as="targetPoint" />
          </mxGeometry>
        </mxCell>
        <mxCell id="aarwhKfDUta44lL6oCuK-48" value="transact" style="text;html=1;align=center;verticalAlign=middle;whiteSpace=wrap;rounded=0;" vertex="1" parent="1">
          <mxGeometry x="1090" y="170" width="60" height="30" as="geometry" />
        </mxCell>
        <mxCell id="aarwhKfDUta44lL6oCuK-49" value="" style="endArrow=classic;dashed=1;html=1;rounded=0;endFill=1;" edge="1" parent="1">
          <mxGeometry width="50" height="50" relative="1" as="geometry">
            <mxPoint x="909.5" y="160" as="sourcePoint" />
            <mxPoint x="909.5" y="100" as="targetPoint" />
          </mxGeometry>
        </mxCell>
        <mxCell id="aarwhKfDUta44lL6oCuK-51" value="can&#39;t&amp;nbsp;&lt;div&gt;acquire&lt;/div&gt;&lt;div&gt;lock&lt;/div&gt;" style="text;html=1;align=center;verticalAlign=middle;whiteSpace=wrap;rounded=0;" vertex="1" parent="1">
          <mxGeometry x="910" y="120" width="60" height="30" as="geometry" />
        </mxCell>
        <mxCell id="aarwhKfDUta44lL6oCuK-52" value="" style="endArrow=classic;dashed=1;html=1;rounded=0;endFill=1;entryX=0.75;entryY=0;entryDx=0;entryDy=0;" edge="1" parent="1">
          <mxGeometry width="50" height="50" relative="1" as="geometry">
            <mxPoint x="970" y="100" as="sourcePoint" />
            <mxPoint x="970" y="160" as="targetPoint" />
          </mxGeometry>
        </mxCell>
        <mxCell id="aarwhKfDUta44lL6oCuK-53" value="&lt;font style=&quot;font-size: 18px;&quot;&gt;Phase One&lt;/font&gt;" style="text;html=1;align=center;verticalAlign=middle;whiteSpace=wrap;rounded=0;" vertex="1" parent="1">
          <mxGeometry x="380" y="50" width="120" height="30" as="geometry" />
        </mxCell>
        <mxCell id="aarwhKfDUta44lL6oCuK-54" value="&lt;font style=&quot;font-size: 18px;&quot;&gt;Phase Two&lt;/font&gt;" style="text;html=1;align=center;verticalAlign=middle;whiteSpace=wrap;rounded=0;" vertex="1" parent="1">
          <mxGeometry x="880" y="50" width="120" height="30" as="geometry" />
        </mxCell>
      </root>
    </mxGraphModel>
  </diagram>
</mxfile>
